HIERARCHY
ROOT Hips
{
  OFFSET 279.157 85.6768 304.565
  CHANNELS 6 Xposition Yposition Zposition Zrotation Xrotation Yrotation
  JOINT LeftUpLeg
  {
    OFFSET 8.64259 1.95398 -2.38835
    CHANNELS 3 Zrotation Xrotation Yrotation
    JOINT LeftLeg
    {
      OFFSET 43.7702 0 0
      CHANNELS 3 Zrotation Xrotation Yrotation
      JOINT LeftFoot
      {
        OFFSET 40.6238 0 0
        CHANNELS 3 Zrotation Xrotation Yrotation
        JOINT LeftToeBase
        {
          OFFSET 12.7242 0 0
          CHANNELS 3 Zrotation Xrotation Yrotation
          End Site
          {
            OFFSET 0 0 0
          }
        }
      }
    }
  }
  JOINT RightUpLeg
  {
    OFFSET -8.2249 1.95398 -2.59336
    CHANNELS 3 Zrotation Xrotation Yrotation
    JOINT RightLeg
    {
      OFFSET 43.5653 0 0
      CHANNELS 3 Zrotation Xrotation Yrotation
      JOINT RightFoot
      {
        OFFSET 40.6238 0 0
        CHANNELS 3 Zrotation Xrotation Yrotation
        JOINT RightToeBase
        {
          OFFSET 12.7242 0 0
          CHANNELS 3 Zrotation Xrotation Yrotation
          End Site
          {
            OFFSET 0 0 0
          }
        }
      }
    }
  }
  JOINT Spine
  {
    OFFSET 0.165834 0.87714 6.61349
    CHANNELS 3 Zrotation Xrotation Yrotation
    JOINT Spine1
    {
      OFFSET 7.38963 1.71661e-005 0
      CHANNELS 3 Zrotation Xrotation Yrotation
      JOINT Spine2
      {
        OFFSET 11.9445 1.14441e-005 0
        CHANNELS 3 Zrotation Xrotation Yrotation
        JOINT Spine3
        {
          OFFSET 14.7254 4.19617e-005 0
          CHANNELS 3 Zrotation Xrotation Yrotation
          JOINT Spine4
          {
            OFFSET 10.9679 0 0
            CHANNELS 3 Zrotation Xrotation Yrotation
            JOINT RightShoulder
            {
              OFFSET 2.46616 -1.6653 3.69651
              CHANNELS 3 Zrotation Xrotation Yrotation
              JOINT RightArm
              {
                OFFSET 13.0012 0 0
                CHANNELS 3 Zrotation Xrotation Yrotation
                JOINT RightForeArm
                {
                  OFFSET 28.7848 1.52588e-005 0
                  CHANNELS 3 Zrotation Xrotation Yrotation
                  JOINT RightHand
                  {
                    OFFSET 26.5688 1.52588e-005 0
                    CHANNELS 3 Zrotation Xrotation Yrotation
                    End Site
                    {
                      OFFSET 0 0 0
                    }
                  }
                }
              }
            }
            JOINT LeftShoulder
            {
              OFFSET 2.38034 -1.29275 -3.7523
              CHANNELS 3 Zrotation Xrotation Yrotation
              JOINT LeftArm
              {
                OFFSET 16.3182 6.10351e-005 0
                CHANNELS 3 Zrotation Xrotation Yrotation
                JOINT LeftForeArm
                {
                  OFFSET 27.0901 0 0
                  CHANNELS 3 Zrotation Xrotation Yrotation
                  JOINT LeftHand
                  {
                    OFFSET 24.5451 1.52588e-005 0
                    CHANNELS 3 Zrotation Xrotation Yrotation
                    End Site
                    {
                      OFFSET 0 0 0
                    }
                  }
                }
              }
            }
            JOINT Neck
            {
              OFFSET 5.0226 -0.0266342 0
              CHANNELS 3 Zrotation Xrotation Yrotation
              JOINT Head
              {
                OFFSET 6.69364 2.86102e-005 0
                CHANNELS 3 Zrotation Xrotation Yrotation
                End Site
                {
                  OFFSET 0 0 0
                }
              }
            }
          }
        }
      }
    }
  }
}
MOTION
Frames:	18
Frame Time:	0.0416667
26.4698 99.5729 -97.3598 -178.2 -81.1285 178.903 -172.557 -2.46025 85.9242 -27.6945 12.2355 -3.36067 79.8718 12.3863 -3.65756 18.2683 -8.5184 7.8045 175.158 20.5549 87.7229 -29.0965 -6.49271 -0.619024 65.2871 -2.94287 -2.04556 16.0904 2.8302 6.35559 -0.456534 8.24493 -90.042 10.3883 -0.928587 0.00159541 -1.28235 -0.927613 0.042463 -23.8201 -0.886137 -0.277576 -3.80747 -0.886142 -0.277582 87.5215 -35.8387 -109.202 32.8286 -8.30868 -5.10523 3.62964 -23.1581 -12.8757 -23.7077 -0.580573 -8.18022 -89.4003 -46.9266 78.9779 -24.7173 0.3315 -20.5699 7.44486 2.12906 -13.7521 3.18039 -0.466441 -12.0823 -14.3546 2.0179 -8.24134 -1.82307 2.15285 3.27839 
27.4798 100.462 -101.018 -158.052 -79.7037 -162.126 -174.236 -2.98184 82.946 -23.6465 7.57754 -3.74254 76.2839 10.0371 -2.19877 15.6334 -9.33534 5.43518 175.766 19.3159 86.1991 -41.863 -8.10812 -2.66985 67.0008 -4.08685 -1.4239 18.6613 2.45896 4.63046 0.078641 8.2499 -89.5556 10.3718 0.360159 0.849936 -1.29941 0.397214 0.833259 -23.8323 0.0880758 0.918876 -3.81965 0.0880799 0.918881 86.9852 -33.5388 -111.117 35.8784 -10.2475 -4.0469 2.80008 -23.9962 -15.0696 -23.8701 -0.538093 -8.65629 -89.2378 -49.5563 79.7754 -21.7232 3.21155 -11.734 4.33979 -1.35066 -10.8962 1.04085 -0.270557 -10.3419 -16.0867 1.9552 -8.25453 -0.795339 1.97818 1.48033 
27.9881 100.981 -103.811 -152.935 -78.92 -157.272 -175.543 -2.67167 81.7056 -20.58 5.38702 -3.20901 73.5834 7.83325 -2.54196 13.8809 -10.2204 4.90192 175.505 14.5135 85.1272 -52.4036 -9.11379 -3.86948 66.8198 -4.45365 -3.33874 21.3031 1.19358 6.97374 0.456979 8.15813 -89.3272 10.5496 1.21935 1.22789 -1.12128 1.2722 1.17303 -23.6541 0.793998 1.53754 -3.64142 0.793991 1.53753 86.9505 -32.0344 -111.824 37.8688 -11.7543 -2.53561 1.8569 -23.2544 -17.4463 -25.6528 -0.430936 -8.79364 -89.1432 -52.4308 80.4858 -23.6173 1.23405 -1.68609 4.25854 -4.35168 -7.86899 -2.28913 -0.0946833 -10.0831 -16.1203 0.925372 -7.31768 -0.876179 0.912624 -0.927491 
28.2928 100.961 -106.246 -148.297 -79.1668 -153.491 -176.109 -0.364144 80.5009 -20.415 5.28269 -3.36692 72.2404 7.10739 -0.953112 12.4658 -10.8411 4.27069 174.251 7.88406 83.1379 -57.1649 -11.9789 -4.53335 65.1702 -3.35891 -1.62383 21.3935 1.42889 5.63349 0.809946 7.9244 -89.038 11.0067 2.05808 1.71749 -0.663629 2.13166 1.62524 -23.1971 1.4469 2.25649 -3.1844 1.4469 2.25648 86.7349 -31.2496 -112.584 40.3416 -10.647 -1.15937 1.26065 -23.0045 -17.225 -25.5922 -0.346579 -9.17818 -88.2954 -53.7572 81.9554 -25.9123 3.17876 9.39153 1.54343 -13.8839 -7.31372 2.80221 -0.129407 -4.89151 -16.2612 -0.0522146 -7.89104 -1.04341 -0.0929698 -2.28317 
27.9752 100.519 -109.305 -144.177 -79.4995 -150.097 -175.228 3.29581 80.7764 -22.4747 5.46314 -4.58726 71.3394 6.03666 -1.73754 12.7492 -10.7052 4.36766 173.064 0.145143 82.5016 -55.1901 -19.1787 -5.21781 64.6868 -3.25168 -1.84234 23.4581 0.53786 7.3804 1.0961 7.72633 -88.7304 11.3923 2.77345 2.24845 -0.277448 2.86969 2.12419 -22.8107 1.96979 2.97774 -2.79807 1.96979 2.97774 86.7557 -31.2017 -112.567 42.0053 -10.5602 -1.32272 1.96672 -23.0298 -17.3666 -25.9656 -0.315734 -9.28901 -87.5815 -54.0704 83.0348 -28.0402 2.08984 17.1914 1.00237 -16.1978 -7.5611 1.15621 -0.0817455 -4.01217 -15.3162 -0.579715 -9.22969 -1.94515 -0.5317 -2.8003 
27.9471 100.014 -113.917 -137.88 -78.4552 -144.721 -175.049 7.16838 80.3825 -24.0089 3.38589 -5.16331 69.5185 4.12984 -2.49138 11.1624 -11.6102 4.15373 173.252 -7.37279 82.3184 -47.3784 -28.6006 -7.21975 65.2874 -3.80022 -2.06297 27.2578 -0.652565 8.21235 1.39026 7.74068 -88.4616 11.3459 3.48361 2.7159 -0.322894 3.59972 2.5599 -22.8572 2.50689 3.63681 -2.84453 2.50689 3.63683 86.4882 -31.29 -113.036 41.7122 -11.5603 -2.52169 1.85602 -23.8403 -17.8872 -27.2435 -0.357834 -9.14843 -86.9556 -53.6959 83.8769 -30.0185 1.02849 18.9122 1.44095 -14.9556 -7.58699 -0.267457 -0.0744452 -3.47151 -14.1972 -0.930636 -10.2157 -1.12828 -0.795472 -2.38448 
27.999 99.4612 -120.584 -128.979 -76.9672 -136.112 -175.296 11.2052 80.5466 -22.1845 1.01792 -5.07429 65.2158 1.39782 -2.45579 9.72442 -12.3132 3.70693 174.135 -9.56518 83.301 -40.1468 -27.9804 -8.25131 72.111 -8.3848 -3.54856 32.9212 -2.47053 12.2544 1.6351 7.88461 -88.477 11.0548 3.96101 2.64969 -0.612504 4.07375 2.47266 -23.1565 2.98207 3.71739 -3.14385 2.98206 3.71738 87.1687 -29.7342 -112.444 40.3398 -11.6091 -4.53157 -0.759617 -28.9842 -21.2778 -27.645 -1.18847 -6.53714 -87.2174 -55.573 83.7877 -29.3937 1.52556 14.9733 1.39714 -16.455 -8.7677 -1.22558 -0.0981407 -5.13078 -12.1541 -1.12818 -6.87737 -0.936679 -0.939229 -4.21256 
28.0551 98.7421 -128.863 -126.673 -76.4479 -131.3 -175.587 15.2436 83.6388 -18.9006 -1.10777 -3.90739 60.6424 -1.88514 -3.84436 12.5684 -11.4886 5.92612 176.187 -7.64952 87.286 -37.5505 -25.8365 -7.34189 79.0142 -13.3988 -5.22293 31.5854 -1.76263 8.0715 1.56283 8.12503 -88.9632 10.5979 3.5894 1.73646 -1.06902 3.66233 1.57665 -23.623 2.90168 2.73528 -3.61038 2.9017 2.73528 86.996 -28.1417 -113.543 37.257 -10.7197 -7.46895 -1.80454 -30.474 -21.9978 -26.8952 -0.692533 -9.58038 -87.5841 -59.0778 83.803 -23.0765 3.0564 6.40664 1.75301 -11.0702 -10.2421 -1.81511 -0.112711 -8.73167 -10.4423 -0.485071 -2.35076 -0.309423 -0.45047 -5.50302 
27.6677 98.4724 -137.234 -136.408 -78.4853 -139.201 -174.942 15.857 86.2414 -12.6018 -4.38685 -4.14655 59.9164 -0.175635 -4.66268 21.1202 -7.38921 9.74174 176.613 -2.64121 91.1025 -38.1759 -23.4717 -5.09945 81.9688 -14.3594 -3.56564 26.2245 -0.438135 8.65731 1.14963 8.43394 -89.3693 9.99229 2.57783 1.04006 -1.67642 2.62111 0.925536 -24.2234 2.14607 1.76692 -4.21078 2.14608 1.76693 86.6235 -28.8926 -113.921 33.7435 -9.61577 -8.71223 -2.11092 -28.5732 -22.3788 -28.4175 -0.604409 -9.28263 -88.3849 -59.4903 82.7766 -17.0359 4.4183 -4.49011 1.52162 -12.1202 -10.3892 1.83819 -0.19155 -7.30088 -9.43312 -0.0779864 -0.957103 0.488025 -0.128825 -5.13215 
27.0052 99.2399 -144.315 -160.793 -79.075 -163.13 -173.666 18.3733 87.0594 -21.1289 -5.00593 -3.64836 64.1343 3.07595 -1.49928 13.7354 -11.4163 7.46261 175.657 -0.292869 91.0816 -36.9046 -22.1647 -2.9692 78.3959 -12.0516 -4.17637 26.2463 -0.625077 9.94068 0.627668 8.7737 -89.63 9.32294 1.41786 0.627965 -2.34737 1.44411 0.564947 -24.8857 1.16358 1.02509 -4.87306 1.16358 1.02508 86.8019 -29.4922 -113.27 33.7615 -9.74517 -6.58151 -0.981532 -24.3024 -21.7363 -28.0168 -0.273754 -9.64047 -89.2515 -56.6368 81.1097 -14.354 3.46308 -12.9345 2.29286 -9.79768 -11.5551 2.24765 -0.232894 -7.97956 -9.98881 0.14547 -2.3338 0.303737 0.194878 -3.826 
26.4781 100.446 -149.696 -179.89 -78.4961 178.441 -173.684 20.2451 88.9547 -37.221 5.01465 -1.48106 66.7305 4.42287 0.108191 9.58009 -12.4299 3.76031 175.354 -0.324903 92.1195 -31.3357 -20.119 -1.42329 73.8894 -9.05359 -3.79272 26.1407 -0.54963 9.60012 0.155459 8.91552 -89.9085 9.04259 0.350973 0.15666 -2.6283 0.357536 0.141059 -25.1637 0.287678 0.254905 -5.15102 0.287658 0.254889 87.4733 -31.3289 -111.138 34.7717 -9.90217 -3.11944 -0.00800203 -23.8237 -19.8522 -26.6833 -0.281916 -9.62568 -89.3118 -51.975 80.1511 -14.9392 3.37858 -18.3676 2.72387 -7.93293 -14.9222 2.30141 -0.315782 -9.8852 -10.922 0.638095 -6.12051 -0.227631 0.925187 0.880067 
26.2533 101.042 -154.041 169.157 -78.0401 167.764 -173.828 17.7038 90.5923 -50.6099 7.05339 1.00624 68.4594 5.70918 0.985899 10.9281 -11.8032 4.25024 176.649 1.02768 93.4191 -28.4847 -16.7813 -1.7099 70.9436 -6.84843 -2.9038 22.5315 0.18108 10.6164 -0.278334 8.82695 -90.1309 9.21949 -0.613694 -0.214698 -2.45135 -0.622548 -0.187492 -24.9871 -0.520802 -0.389213 -4.97443 -0.520801 -0.389223 87.9645 -32.4158 -109.748 37.1719 -7.91518 1.86891 1.1491 -23.7177 -18.0982 -26.2428 -0.299009 -9.55073 -90.1547 -48.1947 78.0903 -17.7288 0.373407 -22.7978 5.49587 -3.64552 -15.7196 2.93256 -0.411246 -11.3405 -13.3551 1.79914 -8.19183 -0.760346 2.03001 3.32924 
26.7033 101.131 -157.56 160.34 -77.107 160.337 -174.15 11.188 93.2683 -59.275 11.5212 3.49869 66.4516 4.07878 -0.191846 10.314 -12.2032 4.27685 177.065 1.80319 94.541 -25.9871 -14.9893 -1.08008 68.6045 -5.49272 -3.10565 23.281 0.122119 9.89981 -0.847491 8.70676 -90.4962 9.45518 -1.91323 -0.839726 -2.21457 -1.94833 -0.75469 -24.7559 -1.57242 -1.37598 -4.74323 -1.57242 -1.37598 88.7857 -32.8894 -108.001 38.9129 -6.18875 5.96294 2.8446 -22.6366 -16.261 -25.2027 -0.513817 -8.24413 -90.2786 -45.8555 77.3639 -20.5861 -0.888412 -24.2297 6.31722 -4.05169 -18.1965 6.185 -0.542075 -10.3341 -15.5936 3.20136 -7.49445 -1.14753 3.30333 4.86964 
27.5229 100.769 -161.178 162.752 -76.588 163.839 -171.851 2.3172 96.5905 -59.0853 19.5703 3.91361 59.6559 -0.327228 -0.552967 9.11935 -11.9914 2.23345 177.332 3.98268 94.9436 -26.6245 -15.5237 -0.916025 66.8073 -4.36416 -2.64437 22.0478 0.488421 9.60713 -1.19829 8.58734 -90.9031 9.67844 -2.797 -1.57303 -1.99029 -2.86351 -1.44835 -24.5342 -2.19502 -2.34099 -4.52152 -2.19502 -2.34098 88.9283 -32.2448 -107.978 39.7654 -4.62998 8.67439 4.61625 -19.6889 -11.8603 -24.0478 -0.316233 -8.58518 -89.5466 -46.3009 78.6106 -23.3566 -0.606645 -25.5916 8.25511 1.16683 -19.78 3.22374 -0.456779 -12.1324 -17.7983 3.97244 -3.72683 -1.3418 3.98658 4.93262 
28.6533 100.21 -165.699 159.437 -77.426 161.727 -169.3 -3.94071 98.323 -50.9521 22.1426 3.00754 62.7657 2.02485 0.502378 13.8463 -8.95502 1.82631 177.669 7.95074 95.2398 -26.1644 -15.4316 -0.702882 64.1422 -2.74496 -2.36291 21.6039 0.653272 9.33552 -1.513 8.37414 -91.235 10.0892 -3.57742 -2.15298 -1.57831 -3.66869 -1.99334 -24.1251 -2.76525 -3.12862 -4.11251 -2.76524 -3.12863 88.678 -33.9855 -107.788 38.5979 -2.631 10.0667 3.25582 -17.5246 -12.4377 -22.6618 -0.291517 -8.22501 -89.0992 -45.705 79.1791 -25.1886 2.04732 -25.3645 10.4473 10.703 -21.4935 2.60726 -0.487714 -13.4852 -17.9181 4.53049 -2.81606 -2.29503 4.52023 6.44552 
30.1184 99.3663 -172.197 150.965 -77.8236 152.574 -169.719 -7.95322 96.1028 -40.4133 20.572 2.04286 72.6096 9.27528 1.44649 29.6984 -2.7976 13.8291 177.814 12.8597 93.4983 -25.1005 -14.6178 -1.31601 60.4041 -0.29172 -1.48675 22.1022 0.594201 8.95478 -1.7796 8.21769 -91.3183 10.395 -4.14891 -2.25662 -1.27098 -4.24418 -2.07165 -23.8267 -3.27917 -3.3995 -3.81409 -3.27917 -3.3995 88.6195 -35.0257 -107.51 38.0474 -0.405522 9.3327 2.59863 -16.8405 -13.3287 -21.7951 -0.087944 -9.3311 -89.0293 -46.9458 79.5548 -25.7841 5.86747 -23.7921 9.94504 14.9802 -21.383 0.243076 -0.312038 -14.1541 -16.0072 4.6223 -2.29239 -2.36885 4.65155 7.01587 
31.4695 98.408 -179.79 142.46 -78.1628 142.793 -171.012 -7.74243 93.2969 -34.7225 19.0608 1.18453 82.6632 15.5127 -1.17936 29.3832 -2.23936 11.1965 177.072 17.0397 90.8694 -21.6149 -15.8428 -1.34392 58.2919 0.703343 -2.04033 26.0307 -0.28564 7.97154 -1.67508 8.26849 -91.0759 10.31 -3.82929 -1.80341 -1.35626 -3.90493 -1.63295 -23.9141 -3.11035 -2.87135 -3.90143 -3.11036 -2.87135 88.4188 -37.1506 -107.121 37.2737 -0.21345 6.78403 1.76139 -17.2734 -16.3404 -21.4952 0.139765 -10.9193 -89.391 -45.831 78.7484 -27.3228 8.82947 -21.997 8.0331 18.1434 -18.3161 2.73899 -0.378717 -10.9879 -10.1497 3.70492 -6.52672 -3.34918 3.97079 8.09932 
32.6178 98.8987 -186.817 143.006 -80.2378 141.969 -172.148 -3.17013 89.7913 -32.6349 15.9092 -0.634796 84.5335 15.8251 -3.00779 20.0677 -7.47712 8.04176 176.064 19.2499 89.0627 -17.893 -7.85135 -0.576483 64.0031 -2.99158 -1.79925 23.746 1.07576 3.85332 -1.18402 8.23234 -90.7051 10.3942 -2.68161 -1.16692 -1.2744 -2.73037 -1.04772 -23.8215 -2.20695 -1.9191 -3.80887 -2.20695 -1.91911 87.7549 -37.5914 -108.137 36.5217 -2.06022 3.902 2.0274 -20.056 -15.1038 -22.1146 -0.293847 -9.12746 -89.5019 -46.1861 78.6541 -28.8286 10.8236 -17.1049 3.13174 13.8167 -10.3135 1.43827 -0.224025 -8.17241 -8.10955 2.60534 -8.62839 -2.77192 3.14603 6.97722 
